<svg xmlns="http://www.w3.org/2000/svg" width="216.03778" height="255.51236" version="1.0"><path d="M276.422 319.317c0-3.02 1.41-5.29 10.512-16.935 4.514-5.775 8.478-11.4 8.81-12.5.33-1.1 1.51-10.775 2.62-21.5s2.245-21.412 2.52-23.75l.5-4.25h-8.359c-9.063 0-11.027-.978-10.43-5.195.324-2.286.486-2.31 19.827-3.068 10.725-.42 21.517-1.094 23.982-1.5l4.482-.737 5.214-41c4.822-37.923 11.28-93.134 12.894-110.233.376-3.978 1.271-7.721 1.99-8.318.719-.596 5.499-1.834 10.622-2.75 14.705-2.632 67.908-2.273 93.722.631 22.682 2.552 26.924 3.594 28.19 6.922 3.026 7.96-1.204 60.33-8.744 108.248-1.428 9.075-2.654 19.65-2.724 23.5-.147 8.027-1.245 7.48 12.105 6.03 7.948-.862 9.135-.123 7.874 4.901-.66 2.632-4.828 3.942-17.09 5.375l-5.985.699-1.288 12.498c-1.6 15.511-6.308 35.51-10.277 43.655-5.73 11.755-16.707 20.537-34.646 27.714-20.28 8.114-40.051 10.44-57.686 6.785-10.196-2.113-21.984-7.033-28.19-11.766-5.441-4.15-8.591-10.345-9.215-18.121-.447-5.569-1.086-7.374-3.925-11.094-1.865-2.443-3.994-5.62-4.731-7.059-2.118-4.135-2.892-14.268-1.575-20.612.647-3.115 1.009-5.83.805-6.034-.204-.204-2.882-.112-5.952.205l-5.582.576-1.616 12.124c-.89 6.669-1.916 17.355-2.28 23.749l-.664 11.624 3.106 5.376c1.708 2.956 5.823 8.975 9.144 13.375 8.664 11.48 8.522 11.733-7.46 13.168-7.15.643-16.937 1.205-21.75 1.25-8.203.077-8.75-.047-8.75-1.983zm122.322-10.94c.586-.606-.862-15.868-1.574-16.58-.28-.28-4.95.597-10.379 1.949-5.428 1.352-11.779 2.763-14.114 3.135-2.334.371-4.511 1.107-4.837 1.634-.326.528-.28 3.237.103 6.02l.696 5.06.13.859 5.81.947 5.929.306c8.147-.199 17.973-3.057 18.236-3.33zm-33.322-5.067v-5.072l-5.25.604c-2.887.332-7.177.753-9.532.937-2.355.183-4.523.575-4.817.87-.315.315 3.3 3.017 8.181 4.91 2.968 1.152 5.528 2.414 7.151 2.81 1.1.269 4.704 1.482 4.842 1.546.137.064-.575-3.815-.575-6.605zm48.538.735 9.962-3.337.288-9.163c.238-7.602.032-9.163-1.211-9.163-.825 0-6.473 1.876-12.552 4.169-8.484 3.2-10.952 4.535-10.62 5.75.24.87.731 4.619 1.094 8.331.416 4.247 1.109 6.75 1.869 6.75.665 0 5.691-1.501 11.17-3.337zm20.212-9.094 4.25-2.84v-7.865c0-4.325-.39-7.864-.867-7.864-.476 0-3.176.96-6 2.134l-5.133 2.133v8.7c0 8.857.463 10.63 2.408 9.23.6-.434 3.005-2.066 5.342-3.628zm-69.25.803c20.875-2.81 44.336-10.094 72.624-22.544 18.912-8.323 19.6-8.798 20.391-14.08 1.287-8.579.657-9.91-6.339-13.39-9.594-4.774-40.587-13.014-51.176-13.606l-4.5-.252-.615 12c-.804 15.686-3.052 21.837-10.798 29.548-4.342 4.323-7.187 6.153-12.764 8.21-9.6 3.539-19.741 4.347-29.138 2.32-4.024-.868-7.568-1.578-7.878-1.578-.309 0-.337 2.336-.063 5.191.405 4.213 1.088 5.717 3.626 7.985 3.527 3.151 4.626 3.16 26.63.196zm80.75-10.122c3.356-3.443 10.124-16.171 9.138-17.184-.233-.24-3.566 1.085-7.406 2.943l-6.982 3.378v7.307c0 4.018.359 7.306.797 7.306.439 0 2.442-1.687 4.452-3.75zm-74.613-11.618c10.813-4.94 15.469-11.963 17.514-26.422 1.351-9.558.559-15.557-1.956-14.798-.932.281-7.995.996-15.695 1.589-7.7.592-20.744 1.847-28.987 2.788-14.938 1.706-14.991 1.72-16.397 4.655-.776 1.619-1.63 6.008-1.898 9.753-.604 8.44 1.283 13.934 6.551 19.078 5.729 5.594 9.842 6.731 23.231 6.424 10.15-.233 12.22-.593 17.637-3.067zm-2.542-47.124c14.523-1.37 40.355-4.07 57.405-5.998 17.05-1.93 31.477-3.508 32.059-3.509 3.18-.003 4.558-2.984 6.928-15 1.357-6.876 2.477-13.359 2.49-14.408.022-1.845-.818-1.886-25.727-1.231-47.347 1.243-97.238 4.293-98.997 6.052-.549.549-2.432 15.033-3.88 29.836-.615 6.292-.525 6.75 1.328 6.75 1.094 0 13.871-1.121 28.394-2.492zm.905-44.473c28.168-1.682 61.107-3.28 80.993-3.93l18.493-.605.72-5c4.323-30.06 7.717-66.422 7.765-83.211l.03-10.212-4.25-1.098c-2.338-.604-4.926-1.27-5.75-1.482-4.63-1.185-29.036-3.598-45.517-4.501-28.26-1.548-62.244 1.172-66.126 5.292-1.643 1.745-7.955 57.54-9.809 86.712-.332 5.225-.874 11.912-1.205 14.86l-.602 5.36 3.88-.57c2.133-.314 11.753-1.04 21.378-1.615z" style="fill:#000;fill-opacity:1" transform="translate(-276.422 -65.804)"/></svg>